<svg width="20" height="22" viewBox="0 0 20 22" fill="currentColor" xmlns="http://www.w3.org/2000/svg">
<path d="M11.9109 3.65C11.9109 2.81457 11.5886 2.01335 11.015 1.42261C10.4414 0.831874 9.66337 0.5 8.85213 0.5C8.0409 0.5 7.26289 0.831874 6.68926 1.42261C6.11562 2.01335 5.79336 2.81457 5.79336 3.65V10.4855L4.39652 9.698C3.83489 9.38252 3.18538 9.27431 2.5558 9.39134C1.92623 9.50837 1.35445 9.84361 0.935363 10.3414C0.51628 10.8392 0.275099 11.4696 0.251853 12.128C0.228606 12.7864 0.424692 13.4332 0.807563 13.961L6.30316 21.5H17.9061L19.15 11.2835L11.9109 9.1835V3.65ZM16.9069 12.8165L16.1116 19.4H7.32275L2.43891 12.6905C2.31974 12.5446 2.25603 12.3591 2.2596 12.1684C2.26317 11.9778 2.33378 11.795 2.45832 11.6539C2.58286 11.5128 2.75288 11.4231 2.93682 11.4013C3.12076 11.3795 3.30612 11.4272 3.4585 11.5355L7.83254 14.0345V3.65C7.83254 3.37152 7.93996 3.10445 8.13118 2.90754C8.32238 2.71062 8.58172 2.6 8.85213 2.6C9.12255 2.6 9.38188 2.71062 9.57309 2.90754C9.7643 3.10445 9.87172 3.37152 9.87172 3.65V10.7375L16.9069 12.8165Z" fill="currentColor"/>
</svg>
