<svg width="22" height="28" viewBox="0 0 22 28" fill="currentColor" xmlns="http://www.w3.org/2000/svg">
<path fill-rule="evenodd" clip-rule="evenodd" d="M4.33331 3.33334C3.97969 3.33334 3.64055 3.47381 3.3905 3.72386C3.14046 3.97391 2.99998 4.31305 2.99998 4.66667V23.4091L10.225 18.2484C10.6886 17.9172 11.3114 17.9172 11.775 18.2484L19 23.4091V4.66667C19 4.31305 18.8595 3.97391 18.6095 3.72386C18.3594 3.47381 18.0203 3.33334 17.6666 3.33334H4.33331ZM1.50489 1.83824C2.25503 1.0881 3.27245 0.666672 4.33331 0.666672H17.6666C18.7275 0.666672 19.7449 1.0881 20.4951 1.83824C21.2452 2.58839 21.6666 3.60581 21.6666 4.66667V26C21.6666 26.4995 21.3875 26.957 20.9434 27.1856C20.4993 27.4141 19.9647 27.3753 19.5583 27.085L11 20.9719L2.44163 27.085C2.03521 27.3753 1.50063 27.4141 1.05654 27.1856C0.612443 26.957 0.333313 26.4995 0.333313 26V4.66667C0.333313 3.60581 0.75474 2.58839 1.50489 1.83824Z" fill="currentColor"/>
</svg>
