<svg width="18" height="6" viewBox="0 0 18 6" fill="currentColor" xmlns="http://www.w3.org/2000/svg">
<path d="M9.00001 0.75C10.2375 0.75 11.25 1.7625 11.25 3C11.25 4.2375 10.2375 5.25 9.00001 5.25C7.76251 5.25 6.75001 4.2375 6.75001 3C6.75001 1.7625 7.76251 0.75 9.00001 0.75ZM2.25001 0.75C3.48751 0.75 4.50001 1.7625 4.50001 3C4.50001 4.2375 3.48751 5.25 2.25001 5.25C1.01251 5.25 7.62939e-06 4.2375 7.62939e-06 3C7.62939e-06 1.7625 1.01251 0.75 2.25001 0.75ZM15.75 0.75C16.9875 0.75 18 1.7625 18 3C18 4.2375 16.9875 5.25 15.75 5.25C14.5125 5.25 13.5 4.2375 13.5 3C13.5 1.7625 14.5125 0.75 15.75 0.75Z" fill="currentColor"/>
</svg>
