<svg width="22" height="20" viewBox="0 0 22 20" fill="currentColor" xmlns="http://www.w3.org/2000/svg">
<path fill-rule="evenodd" clip-rule="evenodd" d="M17.6009 9.9009C17.6009 11.8491 16.7483 14.1911 15.4008 15.4012V4.40063C16.7483 5.61069 17.6009 7.95271 17.6009 9.9009ZM5.16696 15.4012H2.20011C0.986749 15.4012 0 14.4144 0 13.2011V6.60074C0 5.38738 0.986749 4.40063 2.20011 4.40063H5.16696L11.4912 0.185217C11.8278 -0.0391943 12.2634 -0.0622954 12.6198 0.130214C12.9773 0.321624 13.2007 0.694542 13.2007 1.10046V18.7013C13.2007 19.1073 12.9773 19.4802 12.6198 19.6716C12.457 19.7585 12.2788 19.8014 12.1006 19.8014C11.8872 19.8014 11.6738 19.7387 11.4901 19.6166L5.16696 15.4012ZM5.50027 6.60074H2.20011V13.2011H5.50027C5.51953 13.2011 5.53713 13.2063 5.55489 13.2116C5.56961 13.216 5.58443 13.2205 5.60038 13.222C5.67298 13.2286 5.74119 13.2429 5.81159 13.2638C5.88529 13.2858 5.9535 13.3133 6.0206 13.3496C6.03265 13.3556 6.04568 13.3597 6.05878 13.3638C6.07677 13.3694 6.09489 13.3751 6.11081 13.3859L11.0005 16.6464V3.15537L6.11081 6.41593C6.09646 6.42511 6.08032 6.4301 6.06411 6.43511C6.04923 6.43971 6.03429 6.44433 6.0206 6.45223C5.9535 6.48853 5.88419 6.51493 5.80939 6.53803C5.74009 6.55784 5.67298 6.57324 5.60258 6.57984C5.58681 6.58131 5.57193 6.58566 5.55703 6.59001C5.53868 6.59537 5.52032 6.60074 5.50027 6.60074ZM22 9.9009C22 14.4012 19.2807 18.0996 15.4008 19.8014V17.6013C18.0266 16.0766 19.7999 13.1494 19.7999 9.9009C19.7999 6.65243 18.0266 3.72519 15.4008 2.20051V0.000401498C19.2807 1.70219 22 5.40057 22 9.9009Z" fill="currentColor"/>
</svg>
