<svg width="86" height="40" viewBox="0 0 86 40" fill="none" xmlns="http://www.w3.org/2000/svg">
<g clip-path="url(#clip0_196_3190)">
<path d="M8.21192 7.81457H0V0H25.6954V7.81457H17.4834V27.8146H8.21192V7.81457Z" fill="white"/>
<path d="M27.8146 0H38.4106C49.5364 0 54.9669 5.43046 54.9669 13.6424V13.7748C54.9669 21.9868 49.2715 27.8146 38.0133 27.8146H27.8146V0ZM37.0861 8.07947V19.7351H38.6755C42.9139 19.7351 45.6954 18.0132 45.6954 13.9073V13.7748C45.6954 9.80132 42.9139 7.94702 38.6755 7.94702H37.0861V8.07947Z" fill="white"/>
<path d="M57.6159 0H66.8874V10.4636L74.8345 0H85.6954L76.0265 12.053L85.8278 27.8146H74.702L69.2715 18.9404L66.8874 21.8543V27.8146H57.6159V0Z" fill="white"/>
<path d="M2.38409 35.4967H0.662231V34.5695H4.90064V35.4967H3.31124V39.8675H2.38409V35.4967Z" fill="white"/>
<path d="M6.6225 37.7483V34.702H7.54965V37.7483C7.54965 38.6755 8.07945 39.2053 8.87415 39.2053C9.66885 39.2053 10.1987 38.6755 10.1987 37.7483V34.702H11.1258V37.7483C11.1258 39.3377 10.1987 40.1324 8.87415 40.1324C7.54965 40 6.6225 39.2053 6.6225 37.7483ZM7.6821 33.3775H8.60925V34.1722H7.6821V33.3775ZM9.2715 33.3775H10.1987V34.1722H9.2715V33.3775Z" fill="white"/>
<path d="M13.3774 34.702H15.7615C16.4238 34.702 16.9536 34.8344 17.3509 35.2318C17.6158 35.4967 17.7483 35.894 17.7483 36.4238C17.7483 37.351 17.2185 37.8808 16.5562 38.0132L18.0132 40H16.9536L15.6291 38.1457H14.437V40H13.5099V34.702H13.3774ZM15.6291 37.351C16.2913 37.351 16.6887 36.9536 16.6887 36.4238C16.6887 35.894 16.2913 35.4967 15.6291 35.4967H14.3046V37.2185H15.6291V37.351Z" fill="white"/>
<path d="M19.6027 34.702H20.5298V37.351L23.0464 34.702H24.2384L21.9868 36.9536L24.2384 40H23.0464L21.1921 37.6159L20.5298 38.4106V40H19.6027V34.702Z" fill="white"/>
<path d="M29.139 34.702H31.1258C32.8476 34.702 33.9072 35.894 33.9072 37.351C33.9072 38.8079 32.7152 40 31.1258 40H29.139V34.702ZM30.0662 35.4967V39.0728H31.1258C32.1854 39.0728 32.9801 38.2781 32.9801 37.351C32.9801 36.2914 32.3178 35.4967 31.1258 35.4967H30.0662Z" fill="white"/>
<path d="M35.894 33.3775H36.8212V34.1722H35.894V33.3775ZM35.894 34.702H36.8212V40H35.894V34.702Z" fill="white"/>
<path d="M39.0729 34.702H40V39.2053H42.7815V40H39.0729V34.702Z" fill="white"/>
<path d="M47.6821 34.702H48.6093V37.351L51.1258 34.702H52.3179L50.0662 36.9536L52.3179 40H51.1258L49.2715 37.6159L48.6093 38.4106V40H47.6821V34.702Z" fill="white"/>
<path d="M53.7748 37.7483V34.702H54.702V37.7483C54.702 38.6755 55.2318 39.2053 56.0265 39.2053C56.8212 39.2053 57.351 38.6755 57.351 37.7483V34.702H58.2782V37.7483C58.2782 39.3377 57.351 40.1324 56.0265 40.1324C54.702 40 53.7748 39.2053 53.7748 37.7483Z" fill="white"/>
<path d="M60.5297 34.702H62.9138C63.5761 34.702 64.1059 34.8344 64.5032 35.2318C64.7681 35.4967 64.9006 35.894 64.9006 36.4238C64.9006 37.351 64.3708 37.8808 63.7085 38.0132L65.1655 40H64.1059L62.7814 38.1457H61.5893V40H60.6622V34.702H60.5297ZM62.7814 37.351C63.4436 37.351 63.841 36.9536 63.841 36.4238C63.841 35.894 63.4436 35.4967 62.7814 35.4967H61.4569V37.2185H62.7814V37.351Z" fill="white"/>
<path d="M66.7549 37.7483V34.702H67.6821V37.7483C67.6821 38.6755 68.2119 39.2053 69.0066 39.2053C69.8013 39.2053 70.3311 38.6755 70.3311 37.7483V34.702H71.2583V37.7483C71.2583 39.3377 70.3311 40.1324 69.0066 40.1324C67.5496 40 66.7549 39.2053 66.7549 37.7483Z" fill="white"/>
<path d="M73.3775 34.702H74.3047L75.8941 37.2185L77.4835 34.702H78.4106V40H77.4835V36.1589L75.7616 38.6755L74.1722 36.1589V40H73.2451V34.702H73.3775Z" fill="white"/>
<path d="M80.6623 37.7483V34.702H81.5894V37.7483C81.5894 38.6755 82.1192 39.2053 82.9139 39.2053C83.7086 39.2053 84.2384 38.6755 84.2384 37.7483V34.702H85.1656V37.7483C85.1656 39.3377 84.2384 40.1324 82.9139 40.1324C81.5894 40 80.6623 39.2053 80.6623 37.7483Z" fill="white"/>
</g>
<defs>
<clipPath id="clip0_196_3190">
<rect width="85.8278" height="40" fill="white"/>
</clipPath>
</defs>
</svg>
